<svg width="24" height="24" viewBox="0 0 24 24" fill="none" xmlns="http://www.w3.org/2000/svg">
<path d="M22.6087 18.4248L17.5275 13.8048C17.2873 13.5865 16.9717 13.4701 16.6472 13.4801C16.3228 13.4901 16.015 13.6258 15.7887 13.8586L12.7975 16.9348C12.0775 16.7973 10.63 16.3461 9.13999 14.8598C7.64999 13.3686 7.19874 11.9173 7.06499 11.2023L10.1387 8.20981C10.3718 7.98372 10.5077 7.67584 10.5177 7.35132C10.5277 7.0268 10.4111 6.71111 10.1925 6.47106L5.57374 1.39106C5.35504 1.15026 5.05108 1.00419 4.72643 0.983885C4.40177 0.963579 4.08198 1.07063 3.83499 1.28231L1.12249 3.60856C0.906375 3.82545 0.777386 4.11412 0.759986 4.41981C0.741236 4.73231 0.383737 12.1348 6.12374 17.8773C11.1312 22.8836 17.4037 23.2498 19.1312 23.2498C19.3837 23.2498 19.5387 23.2423 19.58 23.2398C19.8856 23.2227 20.1741 23.0931 20.39 22.8761L22.715 20.1623C22.9275 19.9161 23.0353 19.5966 23.0155 19.2719C22.9956 18.9473 22.8497 18.6433 22.6087 18.4248V18.4248Z" fill="black"/>
</svg>
